<svg t="1685958955519" class="icon" viewBox="0 0 1024 1024" version="1.1" xmlns="http://www.w3.org/2000/svg" p-id="10450" width="200" height="200"><path d="M887.68 320.853333c-34.432 0-62.293333 28.330667-62.293333 63.317334v247.253333c0 34.901333 27.861333 63.317333 62.293333 63.317333 34.389333 0 62.293333-28.288 62.293333-63.317333V384.170667a62.72 62.72 0 0 0-62.293333-63.317334z m-751.36 0c-34.389333 0-62.293333 28.330667-62.293333 63.317334v247.253333c0 34.901333 27.904 63.317333 62.293333 63.317333 34.432 0 62.293333-28.288 62.293333-63.317333V384.170667c0-34.986667-27.861333-63.317333-62.293333-63.317334z m99.84 1.92v451.754667c0 26.794667 21.76 48.597333 48.554667 48.597333h55.466666v137.6c0 34.858667 27.946667 63.274667 62.293334 63.274667 34.432 0 62.293333-28.288 62.293333-63.274667V823.04h97.024v137.557333c0 34.901333 27.904 63.317333 62.293333 63.317334 34.389333 0 62.293333-28.330667 62.293334-63.317334V823.04h55.466666a48.64 48.64 0 0 0 48.64-48.64V322.816H236.117333z m407.210667-234.069333l51.2-74.282667c2.986667-4.437333 2.304-10.24-1.706667-13.013333-3.968-2.688-9.685333-1.408-12.672 2.986667l-53.205333 77.312A313.6 313.6 0 0 0 512 60.16c-40.96 0-80 7.68-114.986667 21.504L343.808 4.48c-2.986667-4.394667-8.704-5.76-12.672-2.986667-4.010667 2.730667-4.693333 8.533333-1.706667 13.013334l51.2 74.282666c-81.408 37.888-138.496 109.781333-145.792 193.792h554.325334c-7.253333-84.096-64.384-155.989333-145.792-193.877333zM395.093333 205.866667a30.72 30.72 0 1 1 0-61.397334 30.72 30.72 0 0 1 0 61.44z m237.696 0a30.72 30.72 0 1 1 0-61.397334 30.72 30.72 0 0 1 0 61.44z" fill="#1296db" p-id="10451"></path></svg>