<svg t="1687327575011" class="icon" viewBox="0 0 1024 1024" version="1.1" xmlns="http://www.w3.org/2000/svg" p-id="2881" width="200" height="200"><path d="M162.909091 372.363636a46.545455 46.545455 0 0 1 3.490909 92.974546L162.909091 465.454545a23.272727 23.272727 0 0 0-23.109818 20.549819L139.636364 488.727273v372.363636a23.272727 23.272727 0 0 0 23.272727 23.272727 46.545455 46.545455 0 1 1 0 93.090909 116.363636 116.363636 0 0 1-116.247273-111.313454L46.545455 861.090909V488.727273a116.363636 116.363636 0 0 1 116.363636-116.363637zM544.814545 0a128.069818 128.069818 0 0 1 128.069819 128.069818v145.92h197.585454c112.197818 0 156.299636 137.378909 113.873455 387.211637l-3.653818 20.596363c-40.96 223.115636-102.679273 294.912-208.360728 295.633455H349.090909a116.363636 116.363636 0 0 1-116.363636-116.363637V467.781818c0-30.696727 11.333818-56.971636 30.370909-82.874182 5.213091-7.121455 19.083636-23.947636 17.594182-22.039272l8.285091-10.752c54.365091-72.238545 92.695273-153.972364 115.083636-245.597091A139.636364 139.636364 0 0 1 539.694545 0z m0 93.090909h-5.12a46.545455 46.545455 0 0 0-45.218909 35.490909c-26.600727 108.986182-73.518545 206.382545-140.567272 291.770182 0-0.046545-2.141091 2.56-4.887273 5.957818l-10.914909 13.684364c-8.378182 11.403636-12.288 20.48-12.288 27.741091V861.090909a23.272727 23.272727 0 0 0 23.272727 23.272727h422.912c24.087273-0.162909 34.350545-3.793455 48.733091-20.968727 26.321455-31.464727 50.571636-97.629091 70.167273-208.221091 21.085091-118.993455 21.410909-202.542545 6.144-251.694545-8.797091-28.346182-18.013091-36.375273-26.577455-36.375273h-290.676363V128.069818c0-19.316364-15.639273-34.978909-34.955637-34.978909z" fill="#434C4F" p-id="2882"></path></svg>