<svg t="1685439249244" class="icon" viewBox="0 0 1024 1024" version="1.1" xmlns="http://www.w3.org/2000/svg" p-id="11229" width="32" height="32"><path d="M531.4 53c134.224 0 239.864 39.763 316.919 120.531 65.869 69.585 99.425 155.323 99.425 257.216 0 86.98-28.585 167.749-83.269 242.304-55.927 73.313-119.31 110.59-191.394 110.59-52.198 0-82.026-26.094-90.726-77.04-36.042 52.189-84.512 78.283-144.167 78.283-55.927 0-100.668-18.639-135.467-55.916-34.8-37.278-52.199-84.496-52.199-140.413 0-86.98 26.1-162.779 80.783-229.878 53.442-68.343 118.068-101.893 192.638-101.893 53.44 0 90.725 28.58 113.096 85.739l17.4-62.13h110.61l-84.511 303.192c-12.428 44.733-18.642 72.07-18.642 83.253 0 16.154 8.7 24.852 27.342 24.852 34.799 0 69.598-23.61 104.396-68.342 39.77-52.189 59.656-116.804 59.656-191.359 0-77.04-27.342-142.897-82.026-196.329-60.898-59.644-142.925-88.223-247.321-88.223-111.854 0-200.094 34.792-267.207 105.62-67.112 69.585-99.425 160.293-99.425 270.884 0 121.773 34.799 214.967 105.64 277.097 64.626 57.159 157.838 85.738 278.391 85.738 80.783 0 149.138-13.668 206.308-38.52 52.199-24.852 93.212-58.402 125.525-103.135H990c-43.499 78.283-108.125 137.928-192.637 177.69C720.308 957.604 635.796 975 541.342 975c-159.08 0-283.363-41.005-371.603-123.016C81.499 769.973 38 658.14 38 518.97c0-129.229 42.256-237.334 128.01-324.315C257.98 100.218 379.775 53 531.4 53z m15.116 312c-47.302 0-88.38 23.64-123.235 70.919C388.427 483.198 371 535.453 371 593.93c0 29.86 6.224 52.256 18.672 67.186C402.12 677.291 420.792 686 448.177 686c23.651 0 47.302-8.71 69.708-26.128 24.896-19.907 42.323-46.035 52.282-77.14l24.895-89.58C605.021 457.07 610 434.673 610 427.208c0-18.662-7.469-33.593-19.917-44.79C577.635 369.977 562.698 365 546.516 365z" fill="#d81e06" p-id="11230"></path></svg>