<svg t="1685957762823" class="icon" viewBox="0 0 1024 1024" version="1.1" xmlns="http://www.w3.org/2000/svg" p-id="3402" width="16" height="16"><path d="M542.259591 510.259719c0 9.93276-3.123188 18.483126-9.420762 25.753497a30.00308 30.00308 0 0 1-23.705506 10.854357 37.990248 37.990248 0 0 1-25.753497-9.471963 30.00308 30.00308 0 0 1-10.854356-23.705505 37.37585 37.37585 0 0 1 9.727961-25.702297 30.822277 30.822277 0 0 1 24.063904-10.854357c9.471962 0 17.868729 3.174387 25.087899 9.420763a29.90068 29.90068 0 0 1 10.854357 23.705505z m8.601566 33.177467l199.9864-332.030672c-3.430386 3.071988-16.281535 14.95034-38.553446 35.737457-22.271911 20.735917-46.182215 42.956628-71.679713 66.559734-25.599898 23.603106-51.558194 47.820609-78.028488 72.55011-26.521494 24.780701-48.793405 45.823817-66.866933 63.129347-18.073528 17.356731-27.699089 27.135891-28.876684 29.439883l-199.423203 331.467474c2.662389-2.662389 15.411138-14.489542 38.297447-35.430258 22.835109-20.991916 46.847813-43.161427 71.986912-66.559734l77.721289-72.60131c26.623894-24.9343 48.947004-46.079816 66.866933-63.436546 17.919928-17.305531 27.39189-26.931092 28.569486-28.825485zM920.574878 512.000512a398.692805 398.692805 0 0 1-59.391763 211.967152 943.561026 943.561026 0 0 0-24.8831-15.667137c-4.761581-2.867189-7.935968-4.300783-9.471962-4.300783-4.91518 0-7.42397 2.45759-7.423971 7.42397 0 3.839985 11.263955 12.185551 33.791865 25.1391a409.035164 409.035164 0 0 1-105.471578 108.901964 400.228799 400.228799 0 0 1-138.034648 63.129348l-9.164763-38.297447c-0.358399-3.788785-3.225587-5.734377-8.550366-5.734377-1.894392 0-3.430386 1.023996-4.607981 3.174387-1.126395 2.047992-1.535994 3.891184-1.126396 5.427178l9.164763 38.860645a407.806369 407.806369 0 0 1-83.455666 8.550366c-75.775697 0-146.636213-19.96792-212.581549-60.00616 0.409598-0.767997 2.867189-4.659181 7.42397-11.724753 4.607982-7.014372 8.703965-13.414346 12.287951-19.097524 3.635185-5.734377 5.478378-9.369563 5.478378-10.854357 0-4.96638-2.50879-7.42397-7.423971-7.42397-2.303991 0-5.529578 2.764789-9.727961 8.294367a184.319263 184.319263 0 0 0-12.902348 19.711921 421.220715 421.220715 0 0 1-7.679969 13.107148 410.366359 410.366359 0 0 1-109.721161-107.109972 400.024 400.024 0 0 1-62.873349-139.724241l39.423842-8.550366c3.839985-1.177595 5.734377-4.044784 5.734377-8.601565 0-1.894392-1.023996-3.430386-3.123187-4.607982-2.099192-1.126395-4.095984-1.535994-6.041576-1.126395l-38.809445 8.601565A416.100736 416.100736 0 0 1 103.374947 512.000512a398.334407 398.334407 0 0 1 62.31015-216.575134c0.767997 0.358399 4.249583 2.662389 10.547158 6.809573 6.246375 4.198383 11.980752 7.833569 17.151931 10.854357 5.11998 3.071988 8.499166 4.607982 9.983961 4.607981 4.96638 0 7.42397-2.303991 7.42397-6.860772 0-2.303991-2.355191-5.222379-7.116772-8.857565a205.823177 205.823177 0 0 0-18.534326-12.287951l-11.468754-6.860772a415.895936 415.895936 0 0 1 108.031568-108.031568 400.894396 400.894396 0 0 1 139.417043-61.132556l8.550365 38.297447c0.767997 3.788785 3.635185 5.734377 8.601566 5.734377 1.894392 0 3.430386-1.023996 4.607981-3.174387 1.126395-2.047992 1.535994-4.095984 1.126396-5.990376l-8.601566-37.734249A426.340695 426.340695 0 0 1 512.000512 103.426146c77.721289 0 149.913 20.735917 216.575134 62.258951-14.847941 21.350315-22.271911 33.740665-22.271911 37.171052 0 4.96638 2.303991 7.42397 6.860772 7.42397 4.147183 0 13.311947-12.185551 27.391891-36.556654a403.198387 403.198387 0 0 1 107.161171 106.239575c29.132683 42.291031 49.612602 88.217247 61.439754 137.727449l-31.999872 6.860773c-3.839985 0.767997-5.734377 3.788785-5.734377 9.164763 0 1.894392 1.023996 3.430386 3.123188 4.556782 2.099192 1.177595 3.891184 1.535994 5.478378 1.177595l32.56307-7.42397c5.324779 27.39189 7.987168 54.066984 7.987168 79.97408z m48.588605 0c0-62.105352-12.083152-121.343515-36.300654-177.714489a460.183759 460.183759 0 0 0-97.433211-145.714617 460.183759 460.183759 0 0 0-145.714617-97.48441 446.103816 446.103816 0 0 0-177.765689-36.249455c-62.105352 0-121.343515 12.083152-177.663289 36.249455a460.183759 460.183759 0 0 0-145.765817 97.48441 460.183759 460.183759 0 0 0-97.43321 145.714617A446.103816 446.103816 0 0 0 54.786341 512.000512c0 62.105352 12.083152 121.343515 36.300655 177.714489a460.183759 460.183759 0 0 0 97.43321 145.714617 460.183759 460.183759 0 0 0 145.714617 97.48441 446.103816 446.103816 0 0 0 177.714489 36.249455c62.105352 0 121.343515-12.083152 177.765689-36.249455a460.183759 460.183759 0 0 0 145.714617-97.48441 460.183759 460.183759 0 0 0 97.433211-145.714617A446.103816 446.103816 0 0 0 969.163483 512.000512zM1023.998464 512.000512a500.375598 500.375598 0 0 1-40.601438 198.860005c-27.033492 63.231747-63.385346 117.708329-109.106763 163.429746-45.721417 45.721417-100.197999 82.073272-163.429746 109.106763A500.375598 500.375598 0 0 1 512.000512 1023.998464a500.375598 500.375598 0 0 1-198.860005-40.601438c-63.231747-27.033492-117.708329-63.385346-163.429746-109.106763-45.721417-45.721417-82.073272-100.197999-109.157963-163.429746A500.375598 500.375598 0 0 1 0.00256 512.000512c0-69.324523 13.516746-135.628257 40.550238-198.860005 27.084692-63.231747 63.487746-117.708329 109.157963-163.429746 45.721417-45.721417 100.197999-82.073272 163.429746-109.157963A500.375598 500.375598 0 0 1 512.000512 0.00256c69.324523 0 135.628257 13.516746 198.860005 40.550238 63.231747 27.084692 117.708329 63.487746 163.429746 109.157963 45.721417 45.721417 82.073272 100.197999 109.106763 163.429746A500.375598 500.375598 0 0 1 1023.998464 512.000512z" fill="#1296db" p-id="3403"></path></svg>