    <svg t="1684288118631" class="icon" viewBox="0 0 1024 1024" version="1.1"
                        xmlns="http://www.w3.org/2000/svg" p-id="23680" width="16" height="16">
                        <path
                            d="M665.937162 312.460799H501.981533a30.012721 30.012721 0 0 0 0 60.025441h163.955629a30.012721 30.012721 0 1 0 0-60.025441z m-265.850301-13.66916h-59.876863a14.857782 14.857782 0 0 0-14.753778 14.857783v58.836818a14.73892 14.73892 0 0 0 14.753778 14.857783h59.876863a14.753778 14.753778 0 0 0 14.753778-14.857783V313.649422a14.857782 14.857782 0 0 0-14.753778-14.857783z m0 147.092046h-59.876863a14.857782 14.857782 0 0 0-14.753778 14.709205v59.876863a14.857782 14.857782 0 0 0 14.753778 14.857783h59.876863a14.857782 14.857782 0 0 0 14.753778-14.857783v-59.876863a14.857782 14.857782 0 0 0-14.753778-14.709205z m0 149.023558h-59.876863a14.857782 14.857782 0 0 0-14.753778 14.857783v59.728285a14.857782 14.857782 0 0 0 14.753778 14.857782h59.876863a14.857782 14.857782 0 0 0 14.753778-14.857782v-59.728285a14.857782 14.857782 0 0 0-14.753778-14.857783zM784.73999 1023.851422a44.573347 44.573347 0 0 1-30.978476-12.480537l-106.411438-88.255228-106.39658 88.255228a44.766498 44.766498 0 0 1-62.016384 0l-106.426295-88.255228-102.266117 84.243627a44.424769 44.424769 0 0 1-62.046099 0l-106.678878-102.815855a44.707067 44.707067 0 0 1-13.698876-32.09281V81.125126A75.952984 75.952984 0 0 1 164.085844 0.001634h570.71714a44.350481 44.350481 0 0 1 31.394494 12.926271l156.734747 149.915025a43.889889 43.889889 0 0 1 13.297715 31.795654v685.983815a44.855645 44.855645 0 0 1-13.594871 32.092811l-104.747366 98.655675a49.907291 49.907291 0 0 1-33.147713 12.480537zM372.510817 816.288202a44.573347 44.573347 0 0 1 31.008191 12.480537l106.426296 102.667276 106.381722-102.667276a44.781356 44.781356 0 0 1 62.031242 0l106.381722 88.403805 62.17982-55.568106-1.797792-607.83188H713.095763a30.681321 30.681321 0 0 1-30.577316-30.607031V89.296907H177.190409v764.135751l62.031241 59.728285 102.266117-84.392204a44.677352 44.677352 0 0 1 31.02305-12.480537z m293.426345-356.141046H501.981533a29.938432 29.938432 0 1 0 0 59.876864h163.955629a29.938432 29.938432 0 1 0 0-59.876864z m0 148.87498H501.981533a30.012721 30.012721 0 0 0 0 60.025442h163.955629a30.012721 30.012721 0 1 0 0-60.025442z"
                            fill="#56AAE7" p-id="23681"></path>
                    </svg>