<svg t="1687316396693" class="icon" viewBox="0 0 1024 1024" version="1.1" xmlns="http://www.w3.org/2000/svg" p-id="13104" width="200" height="200"><path d="M512 512m-256 0a256 256 0 1 0 512 0 256 256 0 1 0-512 0Z" fill="#3BD5B3" p-id="13105"></path><path d="M512 256v256l-181.12 181.12A256 256 0 1 0 512 256z" fill="#4A8BFE" p-id="13106"></path><path d="M512 928a416 416 0 1 1 416-416 416 416 0 0 1-416 416z m0-768a352 352 0 1 0 352 352A352 352 0 0 0 512 160z" fill="#3BD5B3" p-id="13107"></path><path d="M512 928a412.48 412.48 0 0 1-294.08-121.92l45.12-45.12A352 352 0 1 0 512 160V96a416 416 0 0 1 0 832z" fill="#4A8BFE" p-id="13108"></path></svg>